<?xml version="1.0" encoding="utf-8"?>
<!-- Generator: Adobe Illustrator 19.0.0, SVG Export Plug-In . SVG Version: 6.00 Build 0)  -->
<svg version="1.1" id="Layer_1" xmlns="http://www.w3.org/2000/svg" xmlns:xlink="http://www.w3.org/1999/xlink" x="0px" y="0px"
	 viewBox="0 0 500 500" style="enable-background:new 0 0 500 500;" xml:space="preserve">
<g id="XMLID_1_">
	<path id="XMLID_10_" d="M243.3,315c4.3,15.2,8.3,29.6,12.8,45.2c63.6-16.1,126.9-32.1,191.3-48.4c9.9,34.8,19.7,69.4,29.8,105
		c-108.2,27.4-216,54.7-324.5,82.2C114.5,364.3,76.6,230.4,38.4,95.5c108.3-27.4,216-54.7,324.5-82.2c9.9,34.9,19.7,69.6,29.8,105
		c-63.8,16.2-127.1,32.3-191.3,48.6c4.1,14.5,8.1,28.3,12.2,42.9c63.7-16.1,126.8-32.1,191.2-48.4c9.9,34.7,19.7,69.3,29.9,105
		C370.7,282.6,307.2,298.7,243.3,315z"/>
</g>
</svg>
