<?xml version="1.0" encoding="utf-8"?>
<!-- Generator: Adobe Illustrator 19.0.0, SVG Export Plug-In . SVG Version: 6.00 Build 0)  -->
<svg version="1.1" id="Layer_1" xmlns="http://www.w3.org/2000/svg" xmlns:xlink="http://www.w3.org/1999/xlink" x="0px" y="0px"
	 viewBox="0 0 500 500" style="enable-background:new 0 0 500 500;" xml:space="preserve">
<g id="XMLID_1_">
	<path id="XMLID_13_" d="M79.6,231.6c0.9-6.1,1.8-12.1,2.7-18.2c7.1-48.2,31-86.6,71.3-113c64.7-42.3,135.8-54.9,211-36.7
		c47.1,11.4,85.9,48.6,101.3,92.3c-40,9.8-80,19.6-119.5,29.3c-1-0.9-1.5-1.2-1.6-1.6c-15.4-35.2-49.1-46.5-87-35.9
		c-29.7,8.3-46.6,29.4-47.7,60.3c-1.3,35,7.6,67.8,25.6,97.6c18.1,30.1,46.4,40.3,83.1,30.9c10.5-2.7,21.1-7.2,30-13.3
		c17.6-12.2,22.4-30.9,21.6-51.5c-0.1-2.4-0.2-4.8-0.2-7.2c0-0.2,0.1-0.5,0.4-1.6c39.8-9.8,80-19.6,121.7-29.9
		c0.7,7.8,1.8,15.1,1.9,22.4c0.9,54.6-22.2,96.9-66.5,128c-31.7,22.3-67.7,33.8-105.6,40.1c-40.9,6.7-81.4,6-120.9-8.2
		c-6.7-2.4-13.3-5.5-19.2-8c4.6-9.5,10.2-18,12.8-27.4c2.6-9.5,2.3-19.8,3.4-31.2c-14.5,3.5-26.9,6.5-38.9,9.4
		c-1.5,10.3-3,20.3-4.7,32c-19.4-15.1-33.1-31.5-44.5-50.8c26.9-6.6,53.2-13.1,80.1-19.7c-8.5-33.9-20.3-64.8-54.2-81
		c-14.7-7-30.4-8.6-46.5-7.1C86.2,231.9,82.9,231.6,79.6,231.6C79.6,231.6,79.6,231.6,79.6,231.6z"/>
	<path id="XMLID_12_" d="M83.7,260.2c27.5-6.5,51.7,11,60.1,44.1c-7.3,1.9-14.7,3.8-22.1,5.6c-7.4,1.8-14.9,3.6-23.7,5.7
		c3.9,8,7.5,15.4,11.6,23.6c-19,4.7-37.8,9.4-56.4,14c0.6,21.3,19,46.9,38.3,53.9c20.2,7.4,46.1,0,61.5-17.6
		c8.8,5.6,17.5,11.2,27.4,17.5c-6.2,4.7-11.7,9.7-18,13.5c-18.7,11.3-39.2,17.1-61,17.3c-26,0.3-48-9.4-64.2-30
		c-22.8-28.9-33.6-62-31-98.7C9.1,269.6,34.6,242,74,233.8c2-0.4,3.8-1.4,5.7-2.2c0,0-0.1,0-0.1,0c0.7,6.6,1.3,13.2,2.2,19.8
		c0.4,3,1.4,5.9,2.1,8.9c-30.6,0.5-50.2,34.6-38.3,68.2c17.3-4.2,34.8-8.5,52.4-12.8c-2.5-6.8-5.3-12.5-6.7-18.5
		C88.3,284.9,86.1,272.5,83.7,260.2z"/>
</g>
</svg>
