<?xml version="1.0" encoding="utf-8"?>
<!-- Generator: Adobe Illustrator 19.0.0, SVG Export Plug-In . SVG Version: 6.00 Build 0)  -->
<svg version="1.1" id="Layer_1" xmlns="http://www.w3.org/2000/svg" xmlns:xlink="http://www.w3.org/1999/xlink" x="0px" y="0px"
	 viewBox="0 0 500 500" style="enable-background:new 0 0 500 500;" xml:space="preserve">
<g id="XMLID_1_">
	<path id="XMLID_19_" d="M149,492c-6.8-21.3-13.3-41.7-20.2-63.3c1.8,1,2.6,1.2,2.9,1.6c16.9,23.9,54.2,27.2,78.6,17.9
		c19.5-7.4,30.3-22.5,34.8-42.2c3.8-16.8,3.6-33.6-1.1-50.3c-7-24.6-26.1-40.5-51.6-42.1c-9.3-0.6-18.9-0.1-28,1.7
		c-24.9,5.1-40.8,23.1-44.4,49.5c-1.2,9-1.4,18.2-2.2,28.9c-3.3-9.9-6.2-18.5-9.1-27.2c-0.4,0.1-0.9,0.2-1.3,0.3c0,26.2,0,52.4,0,79
		c-10.1,0-19.6,0-29.8,0c0-34.5,0-69,0-103.2c-13.1,6-25.7,11.8-40,18.3c0-9.6-0.2-17,0.2-24.4c0.1-1.4,2.5-2.9,4.1-3.8
		c11.4-5.9,22.7-12,34.4-17.3c4.5-2,9.9-1.9,15.4-2.8C69.7,243.5,47.5,174.2,25.1,104c107.2-31.8,214-63.4,321.5-95.3
		c10.8,33.8,21.4,67,32.2,101c-53.8,16-107,31.8-161,47.8c4.4,14,8.7,27.3,13.1,41.3c49.7-14.7,98.9-29.3,148.8-44
		c10.8,33.8,21.4,67,32.2,101c-49.7,14.7-98.9,29.3-148.7,44.1c4.6,14.6,9.1,28.6,13.8,43.5c55.4-16.4,110.4-32.7,166.3-49.3
		c10.8,33.8,21.4,67,32.3,101C366.8,427.4,258.2,459.7,149,492z M297.4,422.9c0-7.5,0-14.4,0-22.2c8.1,0,15.2,0,22,0
		c0-4.5,0-8.1,0-12.4c-7.6,0-14.5,0-22.2,0c0-7.4,0-14.1,0-21.2c-4.6,0-8.5,0-13.3,0c0,7.1,0,14,0,21.8c-8.1,0-15.2,0-22.1,0
		c0,4.5,0,8.1,0,12.3c7.5,0,14.5,0,22.3,0c0,7.5,0,14.4,0,21.6C288.6,422.9,292.3,422.9,297.4,422.9z M92.2,314
		c4.8,15.1,9.3,29.1,13.8,43.2c0.3-0.1,0.7-0.2,1-0.3c0-14.2,0-28.4,0-42.9C102.2,314,97.8,314,92.2,314z"/>
	<path id="XMLID_18_" d="M145,381.9c2-10.8,3-21.6,6.1-31.8c4.8-15.7,16.4-22.9,33.3-22.7c15.3,0.1,26,7.5,30.8,23
		c6.5,20.9,6.6,42.2-0.2,63.1c-5.2,15.9-16,23.4-31.4,23.2c-16.5-0.1-27.9-7.6-32.8-23.6C147.7,403.1,146.9,392.5,145,381.9z"/>
</g>
</svg>
