<?xml version="1.0" encoding="utf-8"?>
<!-- Generator: Adobe Illustrator 19.0.0, SVG Export Plug-In . SVG Version: 6.00 Build 0)  -->
<svg version="1.1" id="Layer_1" xmlns="http://www.w3.org/2000/svg" xmlns:xlink="http://www.w3.org/1999/xlink" x="0px" y="0px"
	 viewBox="0 0 500 500" style="enable-background:new 0 0 500 500;" xml:space="preserve">
<g id="XMLID_1_">
	<path id="XMLID_10_" d="M106.1,480.2C72.9,357,40,234.9,6.9,112.1c17.5-4.7,34.4-9.2,51.4-13.7c33.8-9,67.6-17.9,101.3-27.1
		c5.1-1.4,6.9-0.2,8.9,4.5c27.9,65.2,55.9,130.3,83.9,195.4c1,2.3,2.1,4.6,4.5,6.6c-9-74.7-18-149.4-27-225
		c52.8-14.1,105.4-28,158.9-42.3c33.1,122.7,66,245,99.3,368.2c-32.4,8.6-64.2,17.1-96.8,25.8c-23.6-87.3-47-174-70.3-260.7
		c-0.4,0.1-0.7,0.1-1.1,0.2c1.6,14.7,3.1,29.5,4.7,44.2c5.6,50.7,11.1,101.3,16.7,152c2.5,23.2,5.1,46.4,7.7,69.6
		c0.4,3.2,1.2,5.8-3.4,7c-33.4,8.7-66.6,17.7-100.8,26.8c-36.7-82.7-73.3-165.2-109.9-247.7c-0.5,0.2-1,0.3-1.4,0.5
		c23.1,85.8,46.2,171.6,69.5,258.4C170.7,463.1,138.9,471.5,106.1,480.2z"/>
</g>
</svg>
