<?xml version="1.0" encoding="utf-8"?>
<!-- Generator: Adobe Illustrator 19.0.0, SVG Export Plug-In . SVG Version: 6.00 Build 0)  -->
<svg version="1.1" id="Layer_1" xmlns="http://www.w3.org/2000/svg" xmlns:xlink="http://www.w3.org/1999/xlink" x="0px" y="0px"
	 viewBox="0 0 500 500" style="enable-background:new 0 0 500 500;" xml:space="preserve">
<g id="XMLID_1_">
	<path id="XMLID_19_" d="M169.9,454.3c-43.3,10.6-86.2,21.1-130,31.8c0.9-16,1.7-31.1,2.6-46.2c4.2-67.2,8.4-134.5,12.5-201.7
		c3.8-61.8,7.7-123.6,11.4-185.4c0.3-4.4,2-5.9,6.1-7c41.5-10,82.9-20.1,124.2-30.5c4.6-1.2,6.8,0.3,9.3,3.8
		c17.9,25.1,35.9,50.1,53.9,75.1c1.4,1.9,2.8,3.7,4.4,5.7C280.4,88.6,298,82.9,317,81.3c27.5-2.3,50.8,6.5,68,28.1
		c20.3,25.6,29.3,55,24.7,87.8c-2.9,21-14.5,36.7-32.5,47.7c-2,1.2-4,2.4-6.3,3.7c31.8,44.3,63.3,88.1,95.5,133
		c-13.6,3.3-26.3,6.4-39,9.5c-29.2,7.1-58.5,14.2-87.6,21.6c-4.5,1.1-6.8,0.3-9.2-3.6c-8.2-13.3-16.8-26.4-25-39.7
		c-2.2-3.6-4.2-4.5-8.5-3.4c-40.2,10.1-80.5,19.9-120.8,29.5c-4.7,1.1-6.5,2.8-6.4,8C170.2,420.1,169.9,436.7,169.9,454.3z
		 M264.4,100.4c-11.8,9.3-19.4,20.3-22.9,33.7c-8,30.8-0.7,59.3,15.1,85.7c14.5,24.2,36,37.9,64.6,39.1c17,0.7,33.2-2.7,49.2-10.6
		c-4.8-6.9-9.2-13.2-13.7-19.7c11.8-6.9,19.3-16.7,20.6-29.7c2.9-30.9-5.2-58.9-26.5-81.8c-10.3-11.1-24.2-14.2-39.2-11.9
		c-12.3,1.9-23,6.8-31.9,16.3C274.6,114.4,269.8,107.8,264.4,100.4z M170.3,154c0,51.9,0,102.1,0,153.1c28.6-7,56.1-13.7,84.3-20.6
		C226.5,242.2,198.8,198.7,170.3,154z"/>
	<path id="XMLID_18_" d="M356.2,228.1c-18.6,11.3-42.5,10.2-56.7-4.5c-23.3-24.2-31.5-53.9-26.5-87c0.7-4.7,3.6-9.1,6.3-15.5
		C305.5,157.6,330.7,192.6,356.2,228.1z"/>
</g>
</svg>
