<?xml version="1.0" encoding="utf-8"?>
<!-- Generator: Adobe Illustrator 19.0.0, SVG Export Plug-In . SVG Version: 6.00 Build 0)  -->
<svg version="1.1" id="Layer_1" xmlns="http://www.w3.org/2000/svg" xmlns:xlink="http://www.w3.org/1999/xlink" x="0px" y="0px"
	 viewBox="0 0 500 500" style="enable-background:new 0 0 500 500;" xml:space="preserve">
<g id="XMLID_1_">
	<path id="XMLID_23_" d="M104.1,474.1c-32.5-115.3-64.8-230-97.4-345.5c15.3-3.9,30-7.6,44.6-11.3c25.8-6.6,51.5-13.5,77.4-19.6
		c37.6-8.8,69.4,3.1,90.6,35.2c19.3,29.3,28.9,61.7,21.2,96.9c-2.3,10.4-8.3,19.9-13.1,30.8c-0.6-1.2-0.5-0.6-0.2-0.5
		c25.5,7.8,40,26.2,47.9,50.6c6.5,20.1,12.5,40.4,19.1,60.5c5.6,16.9,11.5,33.8,26,46.9c-2.3,1-3.6,1.9-5.1,2.2
		c-26.2,6.7-52.5,13.3-78.7,20.1c-4.6,1.2-7.2,0.3-10.1-3.5c-11.3-14.3-17.8-30.7-22.6-48c-4.2-14.9-8.4-29.7-12.8-44.5
		c-1.4-4.5-3.4-8.9-5.4-13.2c-4.8-10.3-13.1-14.8-24.3-13.5c-5.1,0.6-10.2,1.8-15.9,2.9c12.6,44.6,24.9,88.5,37.5,133.3
		C156.5,460.7,130.6,467.3,104.1,474.1z M102.8,169.9c8.5,30.3,16.9,59.8,25.3,89.5c6.3-1.6,11.6-3.3,16.9-4.3
		c10.9-2,16.9-9,18.1-19.3c2.5-23-2.7-44.4-15.6-63.6c-4.7-7.1-11.9-10.1-20.5-8.2C119.2,165.6,111.7,167.7,102.8,169.9z"/>
	<path id="XMLID_20_" d="M330.8,416.4C298.3,301.1,266,186.3,233.4,70.9c16.2-4.1,32-8.2,47.9-12.2c26.7-6.7,53.3-14.2,80.2-19.9
		c41.3-8.7,75,6.4,96.4,42.7c15.5,26.2,24.1,54.8,24.6,85.4c0.6,40-18.6,69-56,83.3c-14.6,5.6-30.1,8.8-45.1,13
		c-2,0.6-4.1,1.1-7.1,2c12.2,43.4,24.4,86.5,36.8,130.6C384.6,402.7,358.2,409.4,330.8,416.4z M356.3,201.2c8-2,15.5-4.4,23.1-5.7
		c11-1.8,16.7-8.6,18.8-18.7c5.1-24.8-2.6-46.5-18-65.6c-3-3.7-9.6-6.8-14.3-6.4c-11.6,1-23.1,4.1-35.1,6.5
		C339.6,142,347.8,171.2,356.3,201.2z"/>
</g>
</svg>
