<?xml version="1.0" encoding="utf-8"?>
<!-- Generator: Adobe Illustrator 16.0.4, SVG Export Plug-In . SVG Version: 6.00 Build 0)  -->
<!DOCTYPE svg PUBLIC "-//W3C//DTD SVG 1.1//EN" "http://www.w3.org/Graphics/SVG/1.1/DTD/svg11.dtd">
<svg version="1.1" id="Layer_1" xmlns="http://www.w3.org/2000/svg" xmlns:xlink="http://www.w3.org/1999/xlink" x="0px" y="0px"
	 width="1149.115px" height="1500px" viewBox="0 0 1149.115 1500" enable-background="new 0 0 1149.115 1500" xml:space="preserve">
<g>
	<polygon fill="#FFFFFF" points="166.62,809.222 166.62,767.834 130.24,788.528 	"/>
	<polygon fill="#FFFFFF" points="369.548,806.957 405.928,786.264 369.548,765.569 	"/>
	<polygon fill="#FFFFFF" points="269.026,916.37 289.72,879.99 248.337,879.99 	"/>
	<path fill="#FFFFFF" d="M349.434,1093.146c15.425,0,27.935-12.501,27.935-27.931s-12.51-27.931-27.935-27.931
		s-27.935,12.501-27.935,27.931S334.009,1093.146,349.434,1093.146z"/>
	<path fill="#FFFFFF" d="M275.874,19.223c0,0-78.705,4.371-164.771,82.888c-92.365,84.263-85.88,179.839-85.88,179.839v949.74
		c0,0,2.782,95.046,65.987,164.859c73.896,81.633,174.852,85.783,174.852,85.783h222.711V19.223H275.874z M267.522,267.219
		c62.333,0,112.864,50.533,112.864,112.869c0,62.337-50.531,112.873-112.864,112.873c-62.338,0-112.873-50.535-112.873-112.873
		C154.649,317.752,205.185,267.219,267.522,267.219z M321.499,678.31c0,28.347-22.645,51.332-50.58,51.332
		c-27.939,0-50.584-22.985-50.584-51.332c0-28.355,22.645-51.341,50.584-51.341C298.854,626.969,321.499,649.954,321.499,678.31z
		 M154.654,839.107c-28.355,0-51.34-22.64-51.34-50.579s22.985-50.58,51.34-50.58c28.351,0,51.336,22.641,51.336,50.58
		S183.005,839.107,154.654,839.107z M269.026,947.831c-27.936,0-50.58-22.985-50.58-51.341c0-28.354,22.644-51.34,50.58-51.34
		c27.939,0,50.584,22.985,50.584,51.34C319.61,924.846,296.966,947.831,269.026,947.831z M392.467,1109.762h-86.065v-89.092h86.065
		V1109.762z M386.048,836.843c-28.355,0-51.34-22.64-51.34-50.579s22.985-50.58,51.34-50.58c28.355,0,51.34,22.641,51.34,50.58
		S414.404,836.843,386.048,836.843z M459.657,163.788h-79.271v-27.179h79.271V163.788z"/>
	<polygon fill="#FFFFFF" points="250.226,694.801 291.613,694.801 270.919,658.421 	"/>
</g>
<g>
	<polygon fill="#FFFFFF" points="782.562,1065.41 789.326,1065.41 789.326,1091.643 831.041,1091.643 831.041,1065.41 
		837.81,1065.41 810.184,1039.174 	"/>
	<path fill="#FFFFFF" d="M1041.167,102.105c-86.065-78.517-164.771-82.887-164.771-82.887H663.497v1463.114h222.711
		c0,0,100.947-4.15,174.848-85.783c63.204-69.813,65.982-164.859,65.982-164.859V281.945
		C1127.038,281.945,1133.532,186.369,1041.167,102.105z M885.687,215.432c27.935,0,50.584,22.985,50.584,51.341
		c0,28.351-22.649,51.336-50.584,51.336c-27.936,0-50.584-22.985-50.584-51.336C835.103,238.417,857.751,215.432,885.687,215.432z
		 M938.159,484.958c0,28.355-22.645,51.34-50.579,51.34c-27.94,0-50.584-22.985-50.584-51.34s22.644-51.341,50.584-51.341
		C915.515,433.617,938.159,456.603,938.159,484.958z M695.904,142.091h29.063v-24.538h25.665v24.538h28.312v25.668h-28.312v25.668
		h-25.665v-25.668h-29.063V142.091z M719.222,374.73c0-27.939,22.985-50.582,51.34-50.582c28.347,0,51.332,22.643,51.332,50.582
		s-22.985,50.58-51.332,50.58C742.207,425.31,719.222,402.67,719.222,374.73z M810.188,1117.189
		c-26.374,0-47.753-21.375-47.753-47.749c0-26.373,21.379-47.753,47.753-47.753c26.369,0,47.753,21.38,47.753,47.753
		C857.941,1095.814,836.558,1117.189,810.188,1117.189z M899.851,901.396c-62.337,0-112.873-50.535-112.873-112.873
		c0-62.337,50.536-112.873,112.873-112.873c62.333,0,112.864,50.536,112.864,112.873
		C1012.715,850.861,962.184,901.396,899.851,901.396z M1001.952,427.575c-28.351,0-51.336-22.641-51.336-50.58
		s22.985-50.582,51.336-50.582c28.355,0,51.34,22.642,51.34,50.582S1030.308,427.575,1001.952,427.575z"/>
</g>
<g>
	<path fill="#FFFFFF" d="M880.236,266.87l-12.695-19.335h7.383c0.513,0,0.885,0.07,1.114,0.208c0.23,0.137,0.438,0.362,0.62,0.677
		l9.059,14.624c0.094-0.239,0.195-0.473,0.306-0.703s0.239-0.465,0.385-0.703l8.29-13.081c0.402-0.681,0.929-1.021,1.57-1.021h7.104
		l-12.833,19.035l13.191,20.791h-7.41c-0.495,0-0.894-0.128-1.194-0.385c-0.305-0.256-0.558-0.548-0.761-0.88l-9.223-15.257
		c-0.076,0.216-0.16,0.424-0.248,0.619c-0.093,0.19-0.186,0.371-0.279,0.535l-8.838,14.103c-0.203,0.31-0.451,0.602-0.743,0.867
		c-0.296,0.265-0.663,0.397-1.102,0.397h-6.94L880.236,266.87z"/>
</g>
<g>
	<path fill="#FFFFFF" d="M774.83,382.292v15.48h-7.404v-15.48l-14.519-24.347h6.529c0.642,0,1.149,0.159,1.53,0.469
		c0.376,0.314,0.69,0.708,0.947,1.186l7.299,13.302c0.424,0.792,0.791,1.539,1.102,2.247c0.313,0.703,0.597,1.398,0.854,2.079
		c0.238-0.699,0.509-1.402,0.813-2.11c0.301-0.703,0.664-1.446,1.089-2.216l7.241-13.302c0.203-0.402,0.504-0.779,0.911-1.128
		c0.402-0.35,0.916-0.526,1.539-0.526h6.557L774.83,382.292z"/>
</g>
<g>
	<path fill="#FFFFFF" d="M1021.58,393.058h-5.729c-0.642,0-1.167-0.164-1.583-0.482c-0.412-0.323-0.713-0.721-0.894-1.199
		l-2.973-8.126H993.9l-2.973,8.126c-0.15,0.42-0.438,0.81-0.866,1.155c-0.434,0.349-0.96,0.526-1.584,0.526h-5.76l15.646-39.826
		h7.573L1021.58,393.058z M995.803,378.017h12.696l-4.849-13.244c-0.221-0.588-0.465-1.283-0.729-2.079
		c-0.266-0.801-0.526-1.667-0.783-2.605c-0.257,0.938-0.509,1.809-0.757,2.619c-0.252,0.805-0.495,1.513-0.729,2.119
		L995.803,378.017z"/>
</g>
<g>
	<path fill="#FFFFFF" d="M874.088,504.417v-39.826h13.744c2.605,0,4.83,0.248,6.68,0.743c1.844,0.495,3.357,1.203,4.543,2.119
		c1.186,0.92,2.053,2.031,2.601,3.335c0.554,1.305,0.827,2.773,0.827,4.406c0,0.938-0.137,1.831-0.411,2.685
		c-0.278,0.854-0.703,1.655-1.283,2.398c-0.579,0.743-1.313,1.416-2.202,2.021c-0.89,0.606-1.951,1.119-3.182,1.544
		c5.473,1.23,8.206,4.185,8.206,8.869c0,1.69-0.318,3.247-0.964,4.68c-0.642,1.434-1.579,2.667-2.809,3.707
		c-1.23,1.035-2.743,1.849-4.544,2.438c-1.8,0.584-3.856,0.88-6.171,0.88H874.088z M881.497,481.83h5.919
		c2.517,0,4.428-0.455,5.729-1.375c1.305-0.916,1.955-2.375,1.955-4.379c0-2.074-0.584-3.552-1.761-4.433
		c-1.177-0.88-3.013-1.322-5.507-1.322h-6.335V481.83z M881.497,486.953v11.678h7.521c1.375,0,2.525-0.164,3.454-0.496
		c0.925-0.332,1.673-0.77,2.229-1.322c0.562-0.549,0.965-1.19,1.213-1.925c0.247-0.734,0.371-1.517,0.371-2.344
		c0-0.863-0.137-1.637-0.411-2.327c-0.274-0.686-0.708-1.274-1.296-1.761c-0.589-0.486-1.341-0.858-2.257-1.115
		c-0.92-0.256-2.03-0.389-3.335-0.389H881.497z"/>
</g>
</svg>
